<svg xmlns="http://www.w3.org/2000/svg" width="44" height="44" viewBox="0 0 44 44">
    <g fill="#DD382C" fill-rule="evenodd">
        <path fill-rule="nonzero" d="M22 43.5C10.126 43.5.5 33.874.5 22S10.126.5 22 .5 43.5 10.126 43.5 22 33.874 43.5 22 43.5zm0-3c10.217 0 18.5-8.283 18.5-18.5S32.217 3.5 22 3.5 3.5 11.783 3.5 22 11.783 40.5 22 40.5z"/>
        <path d="M20.469 27.313c0-1.386.172-2.49.515-3.313.344-.823 1.024-1.727 2.04-2.71 1.015-.985 1.658-1.686 1.93-2.102a3.69 3.69 0 0 0 .624-2.063c0-.98-.242-1.727-.726-2.242-.485-.516-1.196-.774-2.133-.774-.896 0-1.617.253-2.164.758-.547.505-.82 1.19-.82 2.055h-3.797c.02-1.844.648-3.302 1.882-4.375 1.235-1.073 2.867-1.61 4.899-1.61 2.094 0 3.726.532 4.898 1.594 1.172 1.063 1.758 2.547 1.758 4.453 0 1.698-.792 3.37-2.375 5.016l-1.922 1.89c-.687.782-1.042 1.922-1.062 3.422h-3.547zm-.266 4.859c0-.615.193-1.112.578-1.492.386-.38.906-.57 1.563-.57.666 0 1.192.195 1.578.585.385.39.578.883.578 1.477 0 .573-.187 1.052-.563 1.437-.375.386-.906.578-1.593.578-.688 0-1.216-.192-1.586-.578-.37-.385-.555-.864-.555-1.437z"/>
    </g>
</svg>
